<svg id="Capa_1" data-name="Capa 1" xmlns="http://www.w3.org/2000/svg" viewBox="0 0 278.2 190.16"><path d="M116.47,305.68c-1.6-.8-2.4-1.73-2.4-2.8a9.9,9.9,0,0,1,1.6-4c1.07-1.73,1.53-3.06,1.4-4l-.6-17.6-1.4-54.6-.4-24.2q-.19-22.2-1-27.8a24.11,24.11,0,0,0-1.6-5,18.59,18.59,0,0,1-1.4-5.4q0-4.8,15.2-4.8h1a24.76,24.76,0,0,1,17.6,7q5.81,5.4,10.4,17a109.43,109.43,0,0,1,4.8,20.6q.79,6,1.4,18.4v6.2a121.67,121.67,0,0,1-3.3,26.9,129.75,129.75,0,0,1-9.3,27.1,55.92,55.92,0,0,1-9.3,14.4,66.55,66.55,0,0,1-10.9,10.1q-5.21,3.7-7,3.7A10.65,10.65,0,0,1,116.47,305.68Zm7.8-9a40.52,40.52,0,0,0,13.2-11.1,61,61,0,0,0,9.2-16.1,99.27,99.27,0,0,0,5-16.9,163.08,163.08,0,0,0,2.8-17.7q.6-7.2.6-13.8,0-58.4-32.2-58.4c-2.8,0-4.2.74-4.2,2.2q0,7,.8,16.6.8,9.81.8,16.6,0,11,1.6,38.2,1.39,23.61,1.4,38v22.4Z" transform="translate(-110.67 -154.48)"/><path d="M219.17,305.48a3.12,3.12,0,0,1-1.1-2.4v-26.2q0-2.4-10.2-4.4a91,91,0,0,0-16.8-2c-.27,0-.7,1-1.3,3s-1,3.47-1.3,4.4q-2.59,10.41-5.2,22.2l-1,4.4a1.89,1.89,0,0,1-2,1.6,4.62,4.62,0,0,1-2.9-1,2.93,2.93,0,0,1-1.3-2.4l.2-.4v-.2l2.2-10q2.4-9.39,4.2-18.4a135.06,135.06,0,0,1,3-13.2q1.61-6.6,6.4-33l1.2-6.6q5.21-30.8,7.2-38.8,1-4.8,3.6-14.2a48.27,48.27,0,0,1,2.8-8c1.2-2.26,2.2-3.4,3-3.4a5.23,5.23,0,0,1,4.6,2q1,1.8,3.1,19.8t3.7,36.4l2.6,33.2q0,8.61,1.2,26,1.2,17.61,1.2,26.2v.8a12.58,12.58,0,0,1-.6,4c-.53,1.07-1.8,1.6-3.8,1.6A3.84,3.84,0,0,1,219.17,305.48Zm-1.3-39.6q0-12.39-1.4-33.9t-3-37.9q-.41-7-1.6-15.4l-.8-7.8c0,.14-.13-.6-.4-2.2l-.4-2.4a83.29,83.29,0,0,0-3.1,12.2q-1.5,7.8-3.1,18.4-4.8,29.81-8.2,44.8l-1.8,6.8q-3,10-3,15.2v1.2a66.54,66.54,0,0,0,20.2,2.8h1.2a4.26,4.26,0,0,0,1.4.2C216.54,267.88,217.87,267.22,217.87,265.88Z" transform="translate(-110.67 -154.48)"/><path d="M258.67,307.38a6.94,6.94,0,0,1-.8-3.3q0-6.39.6-19.2l.4-19.4a80.76,80.76,0,0,0-.6-8.2,50.61,50.61,0,0,1-.8-8,51.24,51.24,0,0,0-1.2-9.4,57,57,0,0,1-1.2-9.2q0-2.4-2-11.4a21.53,21.53,0,0,1-.8-2.9,6.49,6.49,0,0,0-.4-1.5q-.8-5.59-2.6-13.8a297.24,297.24,0,0,0-6.6-29.4q-3-9.6-3-13a2.76,2.76,0,0,1,1.2-2.3,4.53,4.53,0,0,1,2.8-.9l2.4,1.6q.6,9,5.4,32.1t7.2,26.5q.4-1,2-17.4,1.4-14.59,4-29,2.4-13.2,5.8-13.2a11,11,0,0,1,1.6.1,1.87,1.87,0,0,1,1,.5,2.3,2.3,0,0,1,.4,1.6,13.65,13.65,0,0,1-.8,4.2l-.8,4-5.2,29.8q-1,5.81-1.8,14.3t-.8,14.9a23.32,23.32,0,0,0,.2,3.2,28.15,28.15,0,0,1,.2,3.4l-1.2,3v1.6l.4,7.8.4,4.2q.6,8,.6,12,0,31.6-.4,40.4l.6.6a.82.82,0,0,0,.2.6v.8a7.4,7.4,0,0,1-1.1,4.1,3.67,3.67,0,0,1-3.3,1.7A2.32,2.32,0,0,1,258.67,307.38Z" transform="translate(-110.67 -154.48)"/><path d="M324.07,304.48l-2.4-8.8q-5.61-18.6-8.2-31.4-1.61-7-4-19.4-2.81-14.4-5.2-23.4l-2,1.2-2.6,1.2.4,77v3q0,4-3.6,4a3.49,3.49,0,0,1-2.6-1,3.24,3.24,0,0,1-1-2.4v-3l.4-40.4.4-19.4q.79-35,.8-59.6v-25.8q0-1.8,3.6-1.8a18.1,18.1,0,0,1,9.7,2.8,20.06,20.06,0,0,1,7.1,7.6,43.64,43.64,0,0,1,5.4,21.4,58,58,0,0,1-4,20q-1.2,3-3,6.9a19.61,19.61,0,0,1-3.2,5.3q4.2,15.41,12.2,47.4l9.4,36a8.22,8.22,0,0,1,.2,2.2,6.51,6.51,0,0,1-.7,3.1,2.25,2.25,0,0,1-2.1,1.3A4.72,4.72,0,0,1,324.07,304.48Zm-19.2-91a37.92,37.92,0,0,0,5.4-6.4,32.6,32.6,0,0,0,2.4-8.4,58.11,58.11,0,0,0,1-10,54.36,54.36,0,0,0-2.8-16.8,20.07,20.07,0,0,0-4.2-8.1,8.29,8.29,0,0,0-6.2-3.1h-.4a.81.81,0,0,1-.6.2v56.4C300.53,217.28,302.33,216,304.87,213.48Z" transform="translate(-110.67 -154.48)"/><path d="M381.77,305.48a3.09,3.09,0,0,1-1.1-2.4v-26.2q0-2.4-10.2-4.4a91,91,0,0,0-16.8-2c-.27,0-.7,1-1.3,3s-1,3.47-1.3,4.4q-2.61,10.41-5.2,22.2l-1,4.4a1.89,1.89,0,0,1-2,1.6,4.6,4.6,0,0,1-2.9-1,2.93,2.93,0,0,1-1.3-2.4l.2-.4v-.2l2.2-10q2.4-9.39,4.2-18.4a135.06,135.06,0,0,1,3-13.2q1.59-6.6,6.4-33l1.2-6.6q5.19-30.8,7.2-38.8,1-4.8,3.6-14.2a47.37,47.37,0,0,1,2.8-8c1.2-2.26,2.2-3.4,3-3.4a5.24,5.24,0,0,1,4.6,2q1,1.8,3.1,19.8t3.7,36.4l2.6,33.2q0,8.61,1.2,26,1.2,17.61,1.2,26.2v.8a12.58,12.58,0,0,1-.6,4c-.54,1.07-1.8,1.6-3.8,1.6A3.84,3.84,0,0,1,381.77,305.48Zm-1.3-39.6q0-12.39-1.4-33.9t-3-37.9q-.4-7-1.6-15.4l-.8-7.8a19.62,19.62,0,0,1-.4-2.2l-.4-2.4a83.29,83.29,0,0,0-3.1,12.2q-1.5,7.8-3.1,18.4-4.8,29.81-8.2,44.8l-1.8,6.8q-3,10-3,15.2v1.2a66.49,66.49,0,0,0,20.2,2.8h1.2a4.22,4.22,0,0,0,1.4.2C379.13,267.88,380.47,267.22,380.47,265.88Z" transform="translate(-110.67 -154.48)"/><path d="M141.48,344.19v-.92a2,2,0,0,0,1.42-.45,3.42,3.42,0,0,0,.81-1.23c.22-.53.47-1.13.75-1.82l6.34-15.71h.74L158.4,340c.16.39.35.9.55,1.51a3.88,3.88,0,0,1,.25,1.57l1-.05,1-.06v1.23h-7v-.92a2,2,0,0,0,1.53-.48,1.28,1.28,0,0,0,.28-1.06,4.18,4.18,0,0,0-.31-1.12L154.68,338l-8,.16-1.08,3c-.14.45-.27.8-.38,1.06s-.24.55-.39.87l1.22-.05,1.18-.06v1.23Zm5.66-7.25h7.11l-2.19-5.35c-.22-.58-.45-1.15-.69-1.72s-.47-1.14-.69-1.72h-.06l-.63,1.56-.67,1.6Z" transform="translate(-110.67 -154.48)"/><path d="M181.47,330.84a6.07,6.07,0,0,0-2-4.09,6.53,6.53,0,0,0-4.38-1.46,7.48,7.48,0,0,0-3.06.63,7.33,7.33,0,0,0-2.51,1.81,8.45,8.45,0,0,0-1.69,2.82,10.69,10.69,0,0,0-.62,3.73,9.52,9.52,0,0,0,1.11,4.65,8.1,8.1,0,0,0,3,3.13,8,8,0,0,0,4.16,1.12,9.93,9.93,0,0,0,3.93-.82,7.78,7.78,0,0,0,3.17-2.4l.8.59a10.42,10.42,0,0,1-2.86,2.55,10.3,10.3,0,0,1-3.06,1.22,13.8,13.8,0,0,1-2.78.32,11.33,11.33,0,0,1-4.23-.76,9.92,9.92,0,0,1-3.32-2.11,9.51,9.51,0,0,1-2.16-3.16,10.12,10.12,0,0,1-.75-3.91,11.51,11.51,0,0,1,.66-3.86,10.1,10.1,0,0,1,2-3.39,9.47,9.47,0,0,1,3.33-2.41,11.41,11.41,0,0,1,4.69-.9,12.29,12.29,0,0,1,3.26.42,11.38,11.38,0,0,1,3,1.29l-.16-1.51h1.66v6.5Z" transform="translate(-110.67 -154.48)"/><path d="M204.81,330.84a6.1,6.1,0,0,0-2-4.09,6.53,6.53,0,0,0-4.39-1.46,7.55,7.55,0,0,0-3.06.63,7.29,7.29,0,0,0-2.5,1.81,8.47,8.47,0,0,0-1.7,2.82,10.69,10.69,0,0,0-.61,3.73,9.52,9.52,0,0,0,1.11,4.65,8,8,0,0,0,3,3.13,7.9,7.9,0,0,0,4.15,1.12,10,10,0,0,0,3.94-.82,7.85,7.85,0,0,0,3.17-2.4l.8.59a10.71,10.71,0,0,1-2.86,2.55,10.52,10.52,0,0,1-3.06,1.22,14,14,0,0,1-2.79.32,11.33,11.33,0,0,1-4.23-.76,9.92,9.92,0,0,1-3.32-2.11,9.49,9.49,0,0,1-2.15-3.16,10,10,0,0,1-.76-3.91,11.28,11.28,0,0,1,.67-3.86,10.25,10.25,0,0,1,2-3.39,9.42,9.42,0,0,1,3.34-2.41,11.38,11.38,0,0,1,4.69-.9,12.34,12.34,0,0,1,3.26.42,11.31,11.31,0,0,1,2.95,1.29l-.15-1.51h1.66v6.5Z" transform="translate(-110.67 -154.48)"/><path d="M221.85,336.94a3.2,3.2,0,0,0-.37-1.77,1.66,1.66,0,0,0-1.17-.64,12.51,12.51,0,0,0-2.12,0l-2.25.08V341c0,.51,0,.93,0,1.29a6.65,6.65,0,0,1-.08.89l5.88-.08a7,7,0,0,0,2.33-.4,3,3,0,0,0,1.54-1.33,5.21,5.21,0,0,0,.56-2.61h1l-.18,5.46H211.15v-.92a2.46,2.46,0,0,0,1.6-.49,1.83,1.83,0,0,0,.47-1.21c0-.51.05-1.09.05-1.75V327.73q0-.57,0-1.08c0-.35,0-.66.06-.94l-1.11.06-1.1.05v-1.23h14.79l.15,4.9h-1a4.58,4.58,0,0,0-.56-2.5,2.62,2.62,0,0,0-1.49-1.15,6.29,6.29,0,0,0-2.1-.27l-2.65.06a3,3,0,0,0-1.63.39,1.54,1.54,0,0,0-.6,1.08,13,13,0,0,0-.11,1.86v4.48l5.79,0-.22-2.41h1.35v5.88Z" transform="translate(-110.67 -154.48)"/><path d="M244.21,330.53a6.48,6.48,0,0,0-.71-2.55,5,5,0,0,0-1.78-2,5.46,5.46,0,0,0-3-.76,4.06,4.06,0,0,0-2.92,1,3.13,3.13,0,0,0-1,2.3,2.76,2.76,0,0,0,.74,2,6.53,6.53,0,0,0,1.92,1.4c.79.4,1.62.79,2.5,1.16s1.56.66,2.34,1a12.43,12.43,0,0,1,2.12,1.24A5.52,5.52,0,0,1,246,337a4.45,4.45,0,0,1,.57,2.31,4.66,4.66,0,0,1-.85,2.74,5.48,5.48,0,0,1-2.44,1.89,9.88,9.88,0,0,1-3.91.69,12,12,0,0,1-2.86-.36,9.23,9.23,0,0,1-2.62-1.07l.16,1.21h-1.6l-.19-6h1.2a4.78,4.78,0,0,0,1.88,3.74,6.78,6.78,0,0,0,4.15,1.27,6,6,0,0,0,2.22-.4,3.76,3.76,0,0,0,1.61-1.19,3.35,3.35,0,0,0-.14-4,6.63,6.63,0,0,0-1.9-1.45c-.78-.41-1.61-.81-2.5-1.18s-1.54-.65-2.3-1a12.74,12.74,0,0,1-2.08-1.21,5.73,5.73,0,0,1-1.51-1.64,4.41,4.41,0,0,1-.56-2.3,5.18,5.18,0,0,1,.27-1.57,4.71,4.71,0,0,1,1-1.61,5.13,5.13,0,0,1,1.91-1.26,8.48,8.48,0,0,1,3.09-.49,13.25,13.25,0,0,1,2.63.3,7.46,7.46,0,0,1,2.72,1.13l-.12-1.2h1.57v6.16Z" transform="translate(-110.67 -154.48)"/><path d="M262.08,344.64a12.6,12.6,0,0,1-5-.9,9.1,9.1,0,0,1-3.4-2.39,9.7,9.7,0,0,1-1.93-3.32,11.3,11.3,0,0,1-.61-3.64,10.56,10.56,0,0,1,.64-3.57,10.41,10.41,0,0,1,2-3.32,10,10,0,0,1,3.35-2.43,11.17,11.17,0,0,1,4.72-.93,11.79,11.79,0,0,1,4.89.93,9.56,9.56,0,0,1,3.4,2.45,10.45,10.45,0,0,1,2,3.32,10.17,10.17,0,0,1,.66,3.55,10.44,10.44,0,0,1-.64,3.54,10.32,10.32,0,0,1-2,3.34,9.85,9.85,0,0,1-3.33,2.44A11.2,11.2,0,0,1,262.08,344.64Zm.06-1.15a7.1,7.1,0,0,0,3.32-.74,7,7,0,0,0,2.35-2,9,9,0,0,0,1.42-2.77,10.19,10.19,0,0,0,.48-3.07,11.69,11.69,0,0,0-.53-3.44,10.61,10.61,0,0,0-1.53-3.11,8.06,8.06,0,0,0-2.51-2.25,6.74,6.74,0,0,0-3.4-.86,7.12,7.12,0,0,0-3.34.76,6.94,6.94,0,0,0-2.36,2,9.09,9.09,0,0,0-1.42,2.77,10.28,10.28,0,0,0-.48,3.1,11.75,11.75,0,0,0,.48,3.22,10.77,10.77,0,0,0,1.46,3.13,7.76,7.76,0,0,0,2.49,2.35A6.86,6.86,0,0,0,262.14,343.49Z" transform="translate(-110.67 -154.48)"/><path d="M277.67,344.19v-.92a2.44,2.44,0,0,0,1.6-.49,1.78,1.78,0,0,0,.48-1.21c0-.51,0-1.09,0-1.75V327.73c0-.38,0-.74,0-1.08s0-.66.06-.94l-1.11.06-1.11.05v-1.23l3.49,0c1.18,0,2.37,0,3.56,0a16.39,16.39,0,0,1,4.81.63,5.41,5.41,0,0,1,2.69,1.71,4.25,4.25,0,0,1,.86,2.67,5.44,5.44,0,0,1-.44,2.23,4.9,4.9,0,0,1-1.73,2,8.91,8.91,0,0,1-3.58,1.34,4.3,4.3,0,0,1,1.08,1l1,1.43,2.09,3q.52.75,1,1.35a3.84,3.84,0,0,0,1.14,1,3.35,3.35,0,0,0,1.6.35v.92h-3.88a10.87,10.87,0,0,1-1.49-1.45c-.4-.49-.82-1-1.25-1.66l-2.06-3c-.26-.4-.57-.85-.9-1.36a5.85,5.85,0,0,0-1.16-1.3c-.33,0-.67,0-1,0s-.71,0-1.06,0v5.43c0,.5,0,.94,0,1.3a8.79,8.79,0,0,1-.08.91l.74,0,.73,0,.74,0v1.23Zm6.71-9.8a10.12,10.12,0,0,0,3-.5,3.9,3.9,0,0,0,2.75-4,5,5,0,0,0-.32-1.86,3.28,3.28,0,0,0-1-1.33,4.78,4.78,0,0,0-1.73-.8,10.37,10.37,0,0,0-2.46-.26,2.3,2.3,0,0,0-1.58.42,1.64,1.64,0,0,0-.49,1.16c0,.49,0,1.08,0,1.75v5.38l.94.05A7.84,7.84,0,0,0,284.38,334.39Z" transform="translate(-110.67 -154.48)"/><path d="M305.75,325.52a2.24,2.24,0,0,0-1.58.47,1.78,1.78,0,0,0-.49,1.2c0,.51-.05,1.1-.05,1.77v11.9c0,.5,0,.94,0,1.3a6.68,6.68,0,0,1-.08.91l1.11-.05,1.1-.06v1.23h-6.92v-.92a2.44,2.44,0,0,0,1.6-.49,1.78,1.78,0,0,0,.48-1.21c0-.51,0-1.09,0-1.75V327.73q0-.57,0-1.08c0-.35,0-.66.06-.94l-1.11.06-1.11.05v-1.23h6.92Z" transform="translate(-110.67 -154.48)"/><path d="M321.65,344.64a12.67,12.67,0,0,1-5-.9,9.18,9.18,0,0,1-3.4-2.39,9.83,9.83,0,0,1-1.92-3.32,11.3,11.3,0,0,1-.61-3.64,10.56,10.56,0,0,1,.64-3.57,10.21,10.21,0,0,1,2-3.32,10,10,0,0,1,3.36-2.43,11.13,11.13,0,0,1,4.72-.93,11.82,11.82,0,0,1,4.89.93,9.65,9.65,0,0,1,3.4,2.45,10.45,10.45,0,0,1,2,3.32,10.17,10.17,0,0,1,.66,3.55,10.46,10.46,0,0,1-.65,3.54,10.29,10.29,0,0,1-2,3.34,9.89,9.89,0,0,1-3.34,2.44A11.13,11.13,0,0,1,321.65,344.64Zm.07-1.15a7.13,7.13,0,0,0,3.32-.74,7,7,0,0,0,2.35-2,9,9,0,0,0,1.42-2.77,10.5,10.5,0,0,0,.47-3.07,11.67,11.67,0,0,0-.52-3.44,10.39,10.39,0,0,0-1.54-3.11,7.92,7.92,0,0,0-2.5-2.25,6.74,6.74,0,0,0-3.4-.86,6.9,6.9,0,0,0-5.71,2.76,9.06,9.06,0,0,0-1.41,2.77,10.28,10.28,0,0,0-.48,3.1,11.75,11.75,0,0,0,.48,3.22,10.52,10.52,0,0,0,1.46,3.13,7.56,7.56,0,0,0,2.49,2.35A6.81,6.81,0,0,0,321.72,343.49Z" transform="translate(-110.67 -154.48)"/><path d="M349.34,330.53a6.66,6.66,0,0,0-.71-2.55,5,5,0,0,0-1.79-2,5.42,5.42,0,0,0-3-.76,4.06,4.06,0,0,0-2.92,1,3.1,3.1,0,0,0-1,2.3,2.8,2.8,0,0,0,.74,2,6.53,6.53,0,0,0,1.92,1.4c.79.4,1.63.79,2.51,1.16s1.56.66,2.34,1a12.43,12.43,0,0,1,2.12,1.24,5.48,5.48,0,0,1,1.52,1.67,4.45,4.45,0,0,1,.57,2.31,4.65,4.65,0,0,1-.84,2.74,5.51,5.51,0,0,1-2.45,1.89,9.83,9.83,0,0,1-3.9.69,12.13,12.13,0,0,1-2.87-.36,9.29,9.29,0,0,1-2.61-1.07l.15,1.21h-1.6l-.18-6h1.2a4.75,4.75,0,0,0,1.88,3.74,6.76,6.76,0,0,0,4.15,1.27,5.87,5.87,0,0,0,2.21-.4,3.73,3.73,0,0,0,1.62-1.19,3.35,3.35,0,0,0-.14-4,6.54,6.54,0,0,0-1.91-1.45c-.78-.41-1.61-.81-2.49-1.18s-1.55-.65-2.31-1a12.64,12.64,0,0,1-2.07-1.21,5.59,5.59,0,0,1-1.51-1.64,4.41,4.41,0,0,1-.57-2.3,4.92,4.92,0,0,1,.28-1.57,4.56,4.56,0,0,1,1-1.61,5.09,5.09,0,0,1,1.9-1.26,8.5,8.5,0,0,1,3.1-.49,13.33,13.33,0,0,1,2.63.3,7.46,7.46,0,0,1,2.72,1.13l-.13-1.2h1.57v6.16Z" transform="translate(-110.67 -154.48)"/></svg>