<svg width="279" height="191" viewBox="0 0 279 191" fill="none" xmlns="http://www.w3.org/2000/svg">
<g clip-path="url(#clip0_739_107)">
<path d="M5.8 170.202C4.2 169.402 3.4 168.472 3.4 167.402C3.63324 165.968 4.17951 164.602 5 163.402C6.07 161.672 6.53 160.342 6.4 159.402L5.8 141.802L4.4 87.2024L4 63.0024C3.87333 48.2024 3.54 38.9357 3 35.2024C2.65025 33.4825 2.11374 31.8059 1.4 30.2024C0.66438 28.4831 0.192399 26.6626 0 24.8024C0 21.6024 5.06667 20.0024 15.2 20.0024H16.2C22.7626 19.9109 29.093 22.4287 33.8 27.0024C37.6733 30.6024 41.14 36.2691 44.2 44.0024C46.4614 50.698 48.0689 57.5969 49 64.6024C49.5267 68.6024 49.9933 74.7357 50.4 83.0024V89.2024C50.3052 98.264 49.1983 107.287 47.1 116.102C45.0099 125.451 41.8909 134.54 37.8 143.202C35.4585 148.452 32.3217 153.309 28.5 157.602C25.2551 161.365 21.599 164.753 17.6 167.702C14.1267 170.169 11.7933 171.402 10.6 171.402C8.92798 171.385 7.28361 170.974 5.8 170.202ZM13.6 161.202C18.7456 158.493 23.2475 154.707 26.8 150.102C30.6692 145.236 33.7717 139.807 36 134.002C38.1644 128.528 39.8377 122.873 41 117.102C42.257 111.258 43.1918 105.349 43.8 99.4024C44.2 94.6024 44.4 90.0024 44.4 85.6024C44.4 46.6691 33.6667 27.2024 12.2 27.2024C9.4 27.2024 8 27.9424 8 29.4024C8 34.0691 8.26667 39.6024 8.8 46.0024C9.33334 52.5424 9.6 58.0758 9.6 62.6024C9.6 69.9358 10.1333 82.6691 11.2 100.802C12.1267 116.542 12.5933 129.209 12.6 138.802V161.202H13.6Z" fill="black"/>
<path d="M108.5 169.021C108.153 168.726 107.874 168.358 107.684 167.943C107.494 167.529 107.397 167.077 107.4 166.621V140.421C107.4 138.821 104 137.355 97.2004 136.021C91.6746 134.834 86.0503 134.165 80.4004 134.021C80.1304 134.021 79.7004 135.021 79.1004 137.021C78.5004 139.021 78.1004 140.491 77.8004 141.421C76.0737 148.361 74.3404 155.761 72.6004 163.621L71.6004 168.021C71.5287 168.49 71.2833 168.915 70.9127 169.212C70.5422 169.508 70.0737 169.654 69.6004 169.621C68.548 169.628 67.5249 169.275 66.7004 168.621C66.3052 168.357 65.9803 168 65.7538 167.582C65.5274 167.164 65.4061 166.697 65.4004 166.221L65.6004 165.821V165.621L67.8004 155.621C69.4004 149.361 70.8004 143.228 72.0004 137.221C72.7791 132.774 73.7804 128.368 75.0004 124.021C76.0737 119.621 78.2071 108.621 81.4004 91.0212L82.6004 84.4212C86.0737 63.8878 88.4737 50.9545 89.8004 45.6212C90.4671 42.4212 91.6671 37.6878 93.4004 31.4212C94.0973 28.6776 95.0343 26.0006 96.2004 23.4212C97.4004 21.1612 98.4004 20.0212 99.2004 20.0212C100.073 19.9424 100.952 20.0843 101.756 20.4337C102.56 20.7832 103.263 21.3291 103.8 22.0212C104.467 23.2212 105.5 29.8212 106.9 41.8212C108.3 53.8212 109.534 65.9545 110.6 78.2212L113.2 111.421C113.2 117.161 113.6 125.828 114.4 137.421C115.2 149.161 115.6 157.894 115.6 163.621V164.421C115.617 165.778 115.415 167.129 115 168.421C114.47 169.491 113.2 170.021 111.2 170.021C110.205 170.051 109.237 169.692 108.5 169.021ZM107.2 129.421C107.2 121.161 106.734 109.861 105.8 95.5212C104.867 81.1812 103.867 68.5478 102.8 57.6212C102.527 52.9545 101.994 47.8212 101.2 42.2212L100.4 34.4212C100.4 34.5612 100.27 33.8212 100 32.2212L99.6004 29.8212C98.2608 33.8038 97.2245 37.8821 96.5004 42.0212C95.5004 47.2212 94.4671 53.3545 93.4004 60.4212C90.2004 80.2945 87.467 95.2278 85.2004 105.221L83.4004 112.021C81.4004 118.688 80.4004 123.755 80.4004 127.221V128.421C86.9499 130.387 93.7632 131.331 100.6 131.221H101.8C102.253 131.365 102.726 131.433 103.2 131.421C105.87 131.421 107.2 130.761 107.2 129.421Z" fill="black"/>
<path d="M148 169.901C147.464 168.884 147.189 167.75 147.2 166.601C147.2 162.341 147.4 155.941 147.8 147.401L148.2 128.001C148.139 125.259 147.939 122.522 147.6 119.801C147.122 117.16 146.854 114.485 146.8 111.801C146.691 108.637 146.29 105.49 145.6 102.401C144.951 99.3719 144.549 96.295 144.4 93.2009C144.4 91.6009 143.733 87.8009 142.4 81.8009C142.066 80.854 141.799 79.885 141.6 78.9009C141.527 78.3867 141.393 77.8831 141.2 77.4009C140.667 73.6742 139.8 69.0742 138.6 63.6009C136.899 53.6956 134.696 43.883 132 34.2009C130 27.8009 129 23.4675 129 21.2009C128.996 20.7485 129.104 20.3022 129.313 19.9011C129.522 19.5 129.827 19.1566 130.2 18.9009C131.007 18.2978 131.993 17.9811 133 18.0009L135.4 19.6009C135.8 25.6009 137.6 36.3009 140.8 51.7009C144 67.1009 146.4 75.9342 148 78.2009C148.267 77.5342 148.933 71.7342 150 60.8009C150.933 51.0742 152.267 41.4075 154 31.8009C155.6 23.0009 157.533 18.6009 159.8 18.6009C160.335 18.5953 160.87 18.6287 161.4 18.7009C161.777 18.7617 162.126 18.9361 162.4 19.2009C162.727 19.6664 162.869 20.2364 162.8 20.8009C162.756 22.2342 162.486 23.6516 162 25.0009L161.2 29.0009L156 58.8009C155.333 62.6742 154.733 67.4409 154.2 73.1009C153.667 78.7609 153.4 83.7275 153.4 88.0009C153.393 89.0709 153.46 90.1401 153.6 91.2009C153.735 92.3291 153.802 93.4645 153.8 94.6009L152.6 97.6009V99.2009L153 107.001L153.4 111.201C153.8 116.534 154 120.534 154 123.201C154 144.268 153.867 157.734 153.6 163.601L154.2 164.201C154.192 164.309 154.206 164.418 154.24 164.521C154.274 164.624 154.329 164.719 154.4 164.801V165.601C154.442 167.046 154.059 168.471 153.3 169.701C152.951 170.252 152.461 170.7 151.881 170.999C151.301 171.298 150.652 171.436 150 171.401C149.558 171.368 149.135 171.209 148.781 170.943C148.426 170.677 148.155 170.316 148 169.901Z" fill="black"/>
<path d="M213.4 168L211 159.2C207.26 146.8 204.526 136.333 202.8 127.8C201.726 123.133 200.393 116.667 198.8 108.4C196.926 98.8 195.193 91 193.6 85L191.6 86.2L189 87.4L189.4 164.4V167.4C189.4 170.067 188.2 171.4 185.8 171.4C185.321 171.421 184.843 171.343 184.396 171.171C183.948 170.999 183.541 170.736 183.2 170.4C182.876 170.091 182.621 169.718 182.448 169.305C182.276 168.892 182.192 168.447 182.2 168V165L182.6 124.6L183 105.2C183.526 81.8667 183.793 62 183.8 45.6V19.8C183.8 18.6 185 18 187.4 18C190.833 17.9944 194.197 18.9656 197.1 20.8C200.093 22.6651 202.542 25.2866 204.2 28.4C207.804 34.9528 209.663 42.3218 209.6 49.8C209.458 56.6506 208.104 63.422 205.6 69.8C204.8 71.8 203.8 74.1 202.6 76.7C201.82 78.625 200.74 80.4139 199.4 82C202.2 92.2734 206.266 108.073 211.6 129.4L221 165.4C221.165 166.121 221.232 166.861 221.2 167.6C221.226 168.675 220.986 169.74 220.5 170.7C220.315 171.098 220.017 171.433 219.644 171.664C219.271 171.895 218.838 172.012 218.4 172C217.216 172.084 216.044 171.719 215.118 170.978C214.191 170.236 213.578 169.173 213.4 168ZM194.2 77C196.23 75.0726 198.042 72.9262 199.6 70.6C200.773 67.9204 201.58 65.095 202 62.2C202.621 58.9018 202.956 55.556 203 52.2C202.955 46.4877 202.01 40.8181 200.2 35.4C199.44 32.4134 198.003 29.6418 196 27.3C195.251 26.3665 194.31 25.606 193.239 25.0709C192.169 24.5358 190.996 24.2387 189.8 24.2H189.4C189.318 24.2719 189.223 24.3266 189.12 24.361C189.017 24.3954 188.908 24.4086 188.8 24.4V80.8C189.86 80.8 191.66 79.52 194.2 77Z" fill="black"/>
<path d="M271.1 169.021C270.751 168.727 270.471 168.359 270.281 167.944C270.091 167.529 269.995 167.077 270 166.621V140.421C270 138.821 266.6 137.354 259.8 136.021C254.274 134.834 248.65 134.164 243 134.021C242.73 134.021 242.3 135.021 241.7 137.021C241.1 139.021 240.7 140.491 240.4 141.421C238.66 148.361 236.927 155.761 235.2 163.621L234.2 168.021C234.128 168.49 233.883 168.915 233.512 169.211C233.142 169.508 232.673 169.654 232.2 169.621C231.147 169.629 230.124 169.276 229.3 168.621C228.905 168.356 228.58 167.999 228.353 167.581C228.127 167.163 228.006 166.696 228 166.221L228.2 165.821V165.621L230.4 155.621C232 149.361 233.4 143.227 234.6 137.221C235.379 132.773 236.38 128.368 237.6 124.021C238.66 119.621 240.793 108.621 244 91.0207L245.2 84.4207C248.66 63.8874 251.06 50.9541 252.4 45.6207C253.067 42.4207 254.267 37.6874 256 31.4207C256.692 28.6758 257.629 25.9984 258.8 23.4207C260 21.1607 261 20.0207 261.8 20.0207C262.673 19.9429 263.551 20.0852 264.355 20.4346C265.158 20.784 265.862 21.3293 266.4 22.0207C267.067 23.2207 268.1 29.8207 269.5 41.8207C270.9 53.8207 272.133 65.9541 273.2 78.2207L275.8 111.421C275.8 117.161 276.2 125.827 277 137.421C277.8 149.161 278.2 157.894 278.2 163.621V164.421C278.217 165.778 278.014 167.128 277.6 168.421C277.06 169.491 275.8 170.021 273.8 170.021C272.804 170.05 271.836 169.692 271.1 169.021ZM269.8 129.421C269.8 121.161 269.333 109.861 268.4 95.5207C267.467 81.1807 266.467 68.5474 265.4 57.6207C265.133 52.9541 264.6 47.8207 263.8 42.2207L263 34.4207C262.825 33.6956 262.691 32.9611 262.6 32.2207L262.2 29.8207C260.86 33.8034 259.824 37.8817 259.1 42.0207C258.1 47.2207 257.067 53.3541 256 60.4207C252.8 80.2941 250.067 95.2274 247.8 105.221L246 112.021C244 118.687 243 123.754 243 127.221V128.421C249.549 130.387 256.363 131.332 263.2 131.221H264.4C264.852 131.366 265.325 131.433 265.8 131.421C268.46 131.421 269.8 130.761 269.8 129.421Z" fill="black"/>
</g>
<defs>
<clipPath id="clip0_739_107">
<rect width="278.2" height="190.16" fill="white"/>
</clipPath>
</defs>
</svg>
