<svg id="Capa_1" data-name="Capa 1" xmlns="http://www.w3.org/2000/svg" viewBox="0 0 478.78 396.8"><path d="M32.76,437.26c-1.4,2.89,1.62,3.45,2.72,5a53.45,53.45,0,0,0,4.25,4.67c-8.15.66-16.17-.59-24.16-1.87-2.56-.41-5.63-1.26-4.62-4.8.86-3,2.28-5.14,6.8-4.46A128.44,128.44,0,0,0,32.76,437.26Z" transform="translate(-10.75 -51.2)" fill="#030304"/><path d="M293,352.32a26.76,26.76,0,0,1,7.14,7.13c-15.3,16.91-33.06,30.83-52.48,42.62-20.89,12.69-43.27,22.05-66.66,29.17a357.32,357.32,0,0,1-51.58,11.89c-13.07,1.95-26.2,3-39.36,4.15-14.75,1.26-29.44.25-44.14.71-2,.07-15-.81-17-1.19-3-1.21,5.78-3.55,3.76-5.94-.93-1.09-2-2.49.14-3.6,13.85,1.16,27.75,1,41.62.75,12.25-.25,24.46-1.42,36.68-2.75a364.29,364.29,0,0,0,55.18-10.15,303.94,303.94,0,0,0,43-14.88,265.14,265.14,0,0,0,46.63-25.9,252,252,0,0,0,24.59-19.92C284.77,360.5,288.82,356.36,293,352.32Z" transform="translate(-10.75 -51.2)" fill="#030304"/><path d="M397.64,221.78,390,214.83c3.55-9.92,5-20.17,6-30.66,1.12-12.13,2.15-24.29,3.59-36.41,1.38-11.59,3.3-23,7.27-33.89,9-24.65,24.85-42.69,50.53-50.86a54.21,54.21,0,0,1,27.88-1.66c2.59.53,4.33,2.15,4.26,5-.06,3-1.84,4.65-4.79,4.94a15.52,15.52,0,0,1-4,0c-18.08-2.91-32.34,4.51-45,16.41-13.6,12.77-20.68,28.76-24.08,46.84a252.61,252.61,0,0,0-4,31.36c-.65,10.56-1.67,21.12-3,31.63C403.65,205.9,401.82,214.21,397.64,221.78Z" transform="translate(-10.75 -51.2)" fill="#030304"/><path d="M390,214.83c-2.09,3.28-3.43,7.1-7.36,10.45,1.12-10.78-.61-19.6-9.77-25.25-3.2,1.55-6.07,3.38-6.35,7.42,7.24,4.72,6.44,12,5.92,19.07-.25,3.42-2.49,4.46-5.6,3.08-5.95-2.63-9.16-10.77-6.66-16.81.63-1.51,1.86-2.74,2.1-4.43-3.21-5.89-5.56-6.19-9.64-1.17a18.7,18.7,0,0,0-2.54,3.62,33.31,33.31,0,0,0-1.23,5.3c-.57,6.84,1,10.49,5.16,16.06,3.46,4.61,8.36,6.84,14.14,8.11a132.29,132.29,0,0,1-23.93,31.09c0-1.23.65-2.27.66-3.31.18-17.58,1-35.26-3.1-52.52A225.64,225.64,0,0,0,308.47,140,287.1,287.1,0,0,0,287,112.32a197.44,197.44,0,0,0-24.94-24.56,190.08,190.08,0,0,0-46.6-26.85,127.93,127.93,0,0,0-37.21-9.47,54.8,54.8,0,0,0-28,4.66c-9.61,4.41-16.42,11.41-19.9,21.65a63.74,63.74,0,0,0-3,23.59c.51,12.55,4.29,24.08,9.42,35.16,8.13,17.6,20,32.77,33,47.05a268.49,268.49,0,0,0,25.67,24.8c4.44,3.76,9,7.34,13.74,11.14-1.21.46-2.32,1-3.48,1.29-18.1,5.09-35.42,12.08-51.4,22C139,252.28,125.91,264,118,280.62c-6.75,14.2-7.87,28.45.51,42.41,5.39,9,13.12,15.56,22,21,14.49,8.9,30.37,13,47.09,14.2,9.17.63,18.29-.51,27.43-1.78a130.08,130.08,0,0,0,38-11.64c25.66-12.19,49.67-27.21,73.07-44.42-8.08,19.75-19.68,36.44-33.21,51.89a15.33,15.33,0,0,0,7.14,7.13A232.78,232.78,0,0,0,317,338.28c10.16-14.9,18.63-30.61,23.2-48.22a7.36,7.36,0,0,1,2.23-2.8c11.68-11.19,23.33-22.37,31.6-36.61,2.57-4.42,3.47-10.2,8.44-13a38.22,38.22,0,0,0,15.14-15.85C396,218.52,394,215.58,390,214.83ZM334,278.93c-.38,3.83-2.9,6.51-5.7,8.72a394.11,394.11,0,0,1-54.93,36.69c-13.09,7.13-26.09,14.49-40.43,18.89-12.76,3.91-25.8,6.43-36.71,6.1-21.27.09-38.55-4.66-54.33-14.93-10.67-6.95-18.1-16.27-20.06-28.83-1.43-9.18,1.75-17.82,6.81-25.66,12.88-20,31.61-32.29,53.05-41.4a215.14,215.14,0,0,1,34.61-11.34,10.07,10.07,0,0,1,8.3,1c10.27,6.14,20.56,12.45,32.55,14.82,5,1,10,1.44,14.93-.75,5.21-2.31,7.1-7.07,6.82-11.83-.26-4.41-1.94-9-6.84-11.43-10.42-5.16-21.26-4.93-32.41-3.56-5.15.63-10.29,1.16-15.38,2.2a4.41,4.41,0,0,1-3.61-1c-8.15-5.9-16.11-12-23.71-18.62a231.67,231.67,0,0,1-18.54-17.85c-12.72-13.83-24.56-28.44-32.56-45.6-4.66-10-8.25-20.36-9.59-31.6a51.25,51.25,0,0,1,2.21-21.36c3.61-12,12.51-18,24-20.32,17.72-3.54,34.28,1.51,50.42,8.16A182.31,182.31,0,0,1,254.15,93.1a185.68,185.68,0,0,1,29.38,28.6,273.79,273.79,0,0,1,25.25,35.45,199.84,199.84,0,0,1,23.16,55.59,179.35,179.35,0,0,1,4.28,29.81C337.09,254.89,335.18,266.84,334,278.93Zm-99.63-54.3c9.88-1.75,19.61-3,29.36-.82,2.52.56,5,1.33,6.61,3.64,2.11,3,.28,8-3.17,8.27C254.61,236.71,244.25,231.31,234.32,224.63Z" transform="translate(-10.75 -51.2)" fill="#030304"/><path d="M373.81,224.92a20.71,20.71,0,0,1-.05-4.85c.78-7.21-1.87-12.21-9.73-14-7.76,11-5.75,19.5,1.44,24.49a6,6,0,0,0,6,.87C374,230.27,374.14,227.69,373.81,224.92Z" transform="translate(-10.75 -51.2)" fill="none"/><path d="M355.26,212.19c5.66-9,13.33-11.14,17.95-6.49,2.81,2.84,3.87,7.57,4.28,10.15" transform="translate(-10.75 -51.2)" fill="none" stroke="#030304" stroke-miterlimit="10" stroke-width="9"/></svg>